{"title":"BBC A Nation Divided 360p t2b mp4","uid":11804133,"size":224479258,"categoryP":"video","categoryS":"tv_shows","magnet":"?xt=urn:btih:530f434ef9be092a112ebc1c30bc075e1375e8a7&amp;dn=BBC+A+Nation+Divided+360p+t2b+mp4&amp;tr=udp%3A%2F%2Ftracker.openbittorrent.com%3A80&amp;tr=udp%3A%2F%2Fopen.demonii.com%3A1337&amp;tr=udp%3A%2F%2Ftracker.coppersurfer.tk%3A6969&amp;tr=udp%3A%2F%2Fexodus.desync.com%3A6969","seeders":2,"leechers":0,"uploader":"toots2boots","files":1,"time":1428514575,"description":"A Nation Divided The Charlie Hebdo Aftermath BBC 2015\nWhen gunmen shot dead 12 people in the attacks on Charlie Hebdo magazine, the hashtag 'Je Suis Charlie' seemed to unify France. But for many young Muslims it was a symbol of their growing alienation from mainstream French society, where the right-wing Front Nationale are now the leading party for the under-35s.\n\nBritish journalist and comedian Shaista Aziz travels to our nearest neighbour to find out why the country has become so divided. As France reels from attacks carried out by French Muslim extremists, she meets the ordinary young Muslims who feel rejected by their country, with some even hiding their Muslim identity to get work.\n\nShaista confronts the far-right youth organisations who believe foreigners should be repatriated. In a rare interview, she speaks to Dieudonne, the controversial comedian who talks about what he calls the double standards over free speech that exist in France today.\n\nGeneral\nComplete name                            : G:Torrent uploadBBC A Nation Divided The Charlie Hebdo Aftermath 360p t2bA Nation Divided  The Charlie Hebdo Aftermath BBC 2015 360p t2b .mp4\nFormat                                   : MPEG-4\nFormat profile                           : Base Media / Version 2\nCodec ID                                 : mp42\nFile size                                : 214 MiB\nDuration                                 : 56mn 52s\nOverall bit rate mode                    : Variable\nOverall bit rate                         : 526 Kbps\nEncoded date                             : UTC 2015-04-01 14:28:57\nTagged date                              : UTC 2015-04-01 14:28:57\ngsst                                     : 0\ngstd                                     : 3412938\ngssd                                     : B0AFCEF45HH1428496887453470\ngshh                                     : r17---sn-ntq7enez.googlevideo.com\n\nVideo\nID                                       : 1\nFormat                                   : AVC\nFormat/Info                              : Advanced Video Codec\nFormat profile                           : &lt;a class=&quot;__cf_email__&quot; href=&quot;/cdn-cgi/l/email-protection&quot; data-cfemail=&quot;91d3f0e2f4fdf8fff4d1dda2bfa1&quot;&gt;[email&amp;#160;protected]&lt;/a&gt;&lt;script cf-hash='f9e31' type=&quot;text/javascript&quot;&gt;\n/* &lt;![CDATA[ */!function(){try{var t=&quot;currentScript&quot;in document?document.currentScript:function(){for(var t=document.getElementsByTagName(&quot;script&quot;),e=t.length;e--;)if(t[e].getAttribute(&quot;cf-hash&quot;))return t[e]}();if(t&amp;&amp;t.previousSibling){var e,r,n,i,c=t.previousSibling,a=c.getAttribute(&quot;data-cfemail&quot;);if(a){for(e=&quot;&quot;,r=parseInt(a.substr(0,2),16),n=2;a.length-n;n+=2)i=parseInt(a.substr(n,2),16)^r,e+=String.fromCharCode(i);e=document.createTextNode(e),c.parentNode.replaceChild(e,c)}}}catch(u){}}();/* ]]&gt; */&lt;/script&gt;\nFormat settings, CABAC                   : No\nFormat settings, ReFrames                : 1 frame\nCodec ID                                 : avc1\nCodec ID/Info                            : Advanced Video Coding\nDuration                                 : 56mn 52s\nBit rate                                 : 428 Kbps\nMaximum bit rate                         : 2 004 Kbps\nWidth                                    : 640 pixels\nHeight                                   : 360 pixels\nDisplay aspect ratio                     : 16:9\nFrame rate mode                          : Constant\nFrame rate                               : 25.000 fps\nColor space                              : YUV\nChroma subsampling                       : 4:2:0\nBit depth                                : 8 bits\nScan type                                : Progressive\nBits/(Pixel*Frame)                       : 0.074\nStream size                              : 174 MiB (81%)\nTagged date                              : UTC 2015-04-01 14:29:33\n\nAudio\nID                                       : 2\nFormat                                   : AAC\nFormat/Info                              : Advanced Audio Codec\nFormat profile                           : LC\nCodec ID                                 : 40\nDuration                                 : 56mn 52s\nBit rate mode                            : Variable\nBit rate                                 : 96.0 Kbps\nMaximum bit rate                         : 103 Kbps\nChannel(s)                               : 2 channels\nChannel positions                        : Front: L R\nSampling rate                            : 44.1 KHz\nCompression mode                         : Lossy\nStream size                              : 39.1 MiB (18%)\nTitle                                    : IsoMedia File Produced by Google, 5-11-2011\nEncoded date                             : UTC 2015-04-01 14:29:19\nTagged date","torrent":{"xt":"urn:btih:530f434ef9be092a112ebc1c30bc075e1375e8a7","amp;dn":"BBC+A+Nation+Divided+360p+t2b+mp4","amp;tr":["udp%3A%2F%2Ftracker.openbittorrent.com%3A80","udp%3A%2F%2Fopen.demonii.com%3A1337","udp%3A%2F%2Ftracker.coppersurfer.tk%3A6969","udp%3A%2F%2Fexodus.desync.com%3A6969"],"infoHash":"530f434ef9be092a112ebc1c30bc075e1375e8a7","infoHashBuffer":{"type":"Buffer","data":[83,15,67,78,249,190,9,42,17,46,188,28,48,188,7,94,19,117,232,167]},"announce":[],"urlList":[]}}